# xmcd
#
# Track frame offsets: 
#        150
#        17550
#        34025
#        47839
#        90347
#        104665
#        122397
#        137427
#        154430
#
# Disc length: 2324 seconds
#
# Revision: 0
# Processed by: cddbd v1.5.2PL0 Copyright (c) Steve Scherf et al.
# Submitted via: ExactAudioCopy v0.99pb4
#
DISCID=69091209
DTITLE=Eric Mercury - Funky Sounds Nurtured In The Fertile Soil Of Mem
DTITLE=phis That Smell Rock
DYEAR=1900
DGENRE=Soul
TTITLE0=I Can Smell That Funky Music
TTITLE1=Like It Should Be
TTITLE2=Stop Looking Down
TTITLE3=It's Time For Me To Love You
TTITLE4=Don't Stop The Feeling
TTITLE5=Wrap me In A Map
TTITLE6=Listen With Your Eyes
TTITLE7=A Gift To You
TTITLE8=Over In Arkansas
EXTD=
EXTT0=
EXTT1=
EXTT2=
EXTT3=
EXTT4=
EXTT5=
EXTT6=
EXTT7=
EXTT8=
PLAYORDER=
